<svg width="30" height="24" viewBox="0 0 30 24" fill="none" xmlns="http://www.w3.org/2000/svg">
<path d="M29.5578 6.8C29.5578 3.1536 26.0098 0.1864 21.5578 0.0167999V0H8.75781V0.0167999C4.30581 0.1864 0.757812 3.1536 0.757812 6.8C0.757812 8.2888 1.35541 9.6608 2.35781 10.7808V20.8C2.35781 22.5672 3.79061 24 5.55781 24H24.7578C26.525 24 27.9578 22.5672 27.9578 20.8V10.7808C28.9602 9.6608 29.5578 8.2888 29.5578 6.8Z" fill="#D99E82"/>
<path d="M15.958 10.7808H27.958V11.9808H15.958V10.7808Z" fill="#CC927A"/>
<path d="M17.5579 6.79998C17.5579 4.03118 14.7275 1.76718 11.1579 1.60878C11.0259 1.60318 9.29231 1.59998 9.15791 1.59998C5.40271 1.59998 2.35791 3.92798 2.35791 6.79998C2.35791 8.07598 2.96111 9.24237 3.95791 10.1472V20C3.95791 21.3256 5.03231 22.4 6.35791 22.4H13.5579C14.8835 22.4 15.9579 21.3256 15.9579 20V10.1432C16.9531 9.23838 17.5579 8.07438 17.5579 6.79998Z" fill="#FFE8B6"/>
</svg>
