<svg width="29" height="24" viewBox="0 0 29 24" fill="none" xmlns="http://www.w3.org/2000/svg">
<path d="M14.4248 24C22.3912 24 28.8493 20.4122 28.8493 15.9864C28.8493 11.5606 22.3912 7.97278 14.4248 7.97278C6.45832 7.97278 0.000244141 11.5606 0.000244141 15.9864C0.000244141 20.4122 6.45832 24 14.4248 24Z" fill="#929497"/>
<path d="M14.4248 22.5976C22.3912 22.5976 28.8493 19.0097 28.8493 14.5839C28.8493 10.1581 22.3912 6.57031 14.4248 6.57031C6.45832 6.57031 0.000244141 10.1581 0.000244141 14.5839C0.000244141 19.0097 6.45832 22.5976 14.4248 22.5976Z" fill="#CCD6DC"/>
<path d="M25.644 13.1367C25.644 16.5785 20.621 19.3697 14.4249 19.3697C8.22875 19.3697 3.20581 16.5785 3.20581 13.1367C3.20581 9.69483 8.22875 6.90369 14.4249 6.90369C20.621 6.90369 25.644 9.69483 25.644 13.1367Z" fill="#F19020"/>
<path d="M25.644 11.4106C25.644 14.8525 20.621 17.6436 14.4249 17.6436C8.22875 17.6436 3.20581 14.8525 3.20581 11.4106C3.20581 7.96876 8.22875 5.17761 14.4249 5.17761C20.621 5.17761 25.644 7.96876 25.644 11.4106Z" fill="#FAAA35"/>
<path d="M25.644 9.68441C25.644 13.1263 20.621 15.9174 14.4249 15.9174C8.22875 15.9174 3.20581 13.1271 3.20581 9.68441C3.20581 6.24176 8.22875 3.45142 14.4249 3.45142C20.621 3.45142 25.644 6.24256 25.644 9.68441Z" fill="#F19020"/>
<path d="M25.644 7.95919C25.644 11.401 20.621 14.1922 14.4249 14.1922C8.22875 14.1922 3.20581 11.401 3.20581 7.95919C3.20581 4.51734 8.22875 1.7262 14.4249 1.7262C20.621 1.7262 25.644 4.51654 25.644 7.95919Z" fill="#FAAA35"/>
<path d="M25.644 6.233C25.644 9.67485 20.621 12.466 14.4249 12.466C8.22875 12.466 3.20581 9.67485 3.20581 6.233C3.20581 2.79114 8.22875 0 14.4249 0C20.621 0 25.644 2.79114 25.644 6.233Z" fill="#F19020"/>
<path d="M22.6915 15.625C22.1097 15.9768 21.4558 16.2917 20.7434 16.5626C20.8388 17.009 21.1184 17.2405 21.4406 17.2405C21.9222 17.2405 22.4984 16.7221 22.6915 15.625Z" fill="#E18524"/>
<path d="M22.7599 13.8572C22.1468 14.2346 21.452 14.5704 20.6899 14.8565C20.7004 15.4238 20.7092 15.8678 20.7092 16.2116C20.7092 16.3406 20.7212 16.4576 20.7436 16.5626C21.456 16.2925 22.11 15.9776 22.6917 15.625C22.7342 15.3814 22.7583 15.1097 22.7583 14.8092L22.7599 13.8572Z" fill="#E5922E"/>
<path d="M22.7669 12.1262C22.145 12.5101 21.4382 12.8515 20.6633 13.1399C20.6705 13.8083 20.6802 14.3764 20.689 14.8565C21.4503 14.5712 22.1459 14.2354 22.7589 13.8572C22.7613 13.1928 22.7637 12.6126 22.7669 12.1262Z" fill="#E18524"/>
<path d="M22.7853 10.3816L20.6553 11.4105C20.6553 12.0508 20.6593 12.6254 20.6641 13.1399C21.439 12.8514 22.1458 12.51 22.7677 12.1262C22.7749 11.0034 22.7853 10.3816 22.7853 10.3816Z" fill="#E5922E"/>
<path d="M12.294 1.89044C9.11178 0.919989 7.7703 1.40962 7.97945 3.91308C8.03315 4.56058 7.14363 5.63921 6.25332 6.25947C4.1834 7.70192 5.07291 10.1132 8.62696 8.3358C10.4068 7.44628 13.0024 7.50639 16.1509 8.47042C18.7938 9.2798 20.439 10.223 20.6546 11.4098C21.3558 11.1726 22.2108 10.8016 22.7854 10.3809C22.5683 9.88884 21.5986 8.44318 20.0616 7.76923C17.1543 6.49427 19.9622 4.65674 22.1379 4.20958C24.1069 3.80489 22.1652 2.32157 19.1713 2.37606C16.1782 2.43056 16.9307 3.30564 12.294 1.89044Z" fill="#D17A28"/>
<path d="M17.7279 3.66303C17.7279 3.66303 17.8137 4.66233 17.4755 4.85466L15.0346 6.24582C14.6972 6.43815 14.1515 6.43815 13.8141 6.24582L11.3731 4.85466C11.0358 4.66233 11.1199 3.6438 11.1199 3.6438L17.7279 3.66303Z" fill="#FAAA35"/>
<path d="M17.4755 3.29603C17.6526 3.397 17.7367 3.53083 17.7279 3.66305C17.7199 3.78246 17.6357 3.90026 17.4755 3.99161L15.0345 5.38278C14.6972 5.5751 14.1514 5.5751 13.8141 5.38278L11.3731 3.99161C11.2048 3.89545 11.1199 3.76964 11.1199 3.64382C11.1199 3.51801 11.204 3.39219 11.3731 3.29603L13.8141 1.90487C14.1514 1.71254 14.6972 1.71254 15.0345 1.90487L17.4755 3.29603Z" fill="#FFD882"/>
</svg>
