<svg width="23" height="24" viewBox="0 0 23 24" fill="none" xmlns="http://www.w3.org/2000/svg">
<path d="M11.7577 0C5.733 0 0.848633 3.26691 0.848633 9.09091C0.848633 9.13382 0.886451 9.64218 0.939542 10.1884C1.133 10.1782 11.7577 18.9091 11.7577 18.9091C11.7577 18.9091 22.381 10.1775 22.573 10.1876C22.6094 9.82836 22.6668 9.14691 22.6668 9.09091C22.6668 3.26691 17.7825 0 11.7577 0Z" fill="#BE1931"/>
<path d="M20.6059 6.91568C20.3637 6.88804 20.1338 6.94477 19.9382 7.05822C19.936 6.74404 19.8953 6.4684 19.7913 6.25531L20.0648 5.43495C20.2553 4.86331 19.9469 4.24586 19.3753 4.05531C19.12 3.96877 18.8568 3.98768 18.6248 4.0815C18.4851 3.55786 17.9818 3.2044 17.4284 3.2815C17.3389 3.29386 17.2553 3.31931 17.1753 3.35131C17.064 2.9404 16.7171 2.61531 16.2691 2.55422C15.6648 2.4735 15.1215 2.89095 15.0408 3.48804L14.8124 5.16513C14.5971 4.8764 14.2458 4.69822 13.8626 4.72877C13.3949 4.76222 13.0211 5.08586 12.896 5.51059L12.8429 4.98113C12.7826 4.38113 12.2429 3.94331 11.6488 4.0044C11.0553 4.06404 10.6218 4.58913 10.672 5.18186L10.6575 5.18913C10.6931 4.80295 10.5244 4.43204 10.2211 4.21022L9.91785 2.69459C9.7993 2.10404 9.22694 1.71931 8.63421 1.83859C8.04367 1.9564 7.66039 2.53168 7.77821 3.12222L8.30039 5.73386L8.02258 6.90113L6.96512 3.99059C6.75858 3.42404 6.13239 3.13168 5.5673 3.33822C5.00076 3.54477 4.70839 4.17022 4.91421 4.73677L5.72003 6.95277C5.46912 7.1244 5.28803 7.3964 5.25021 7.72222L5.07203 9.24877L4.83421 7.82113C4.7353 7.22622 4.17167 6.82331 3.57894 6.9244C2.98476 7.02331 2.5833 7.58549 2.68221 8.17968L3.80948 14.9426H20.7586C20.7942 14.8539 21.5702 8.12077 21.5702 8.12077C21.6357 7.5215 21.2044 6.98259 20.6059 6.91568Z" fill="#F4900C"/>
<path d="M18.6567 4.21605C18.6501 4.1695 18.6363 4.12659 18.6247 4.08223C18.485 3.55859 17.9818 3.20514 17.4283 3.28223C17.3389 3.29459 17.2552 3.32005 17.1752 3.35205C16.7192 3.53241 16.4254 4.00295 16.4952 4.51059L17.9178 14.9419H20.12L18.6567 4.21605ZM15.0276 5.74041C15.0123 5.52441 14.9323 5.32805 14.8116 5.16586C14.5963 4.87714 14.245 4.69895 13.8618 4.7295C13.3941 4.76295 13.0203 5.08659 12.8952 5.51132C12.8596 5.63277 12.8414 5.7615 12.8509 5.89532L13.4901 14.8495L13.4967 14.9419H15.685L15.6836 14.9222L15.0276 5.74041ZM6.45959 6.76441C6.18759 6.73314 5.93014 6.80805 5.71995 6.95205C5.46904 7.12368 5.28795 7.39568 5.25014 7.7215L4.40723 14.9426H6.60359L7.41668 7.97459C7.4865 7.37605 7.05814 6.83423 6.45959 6.76441ZM9.9185 2.69532C9.79995 2.10477 9.22759 1.72005 8.63486 1.83932C8.04432 1.95714 7.66104 2.53241 7.77886 3.12295L10.1425 14.9426H12.3672L9.9185 2.69532Z" fill="#FFCC4D"/>
<path d="M19.7576 10.9091C19.7576 12.9178 16.5773 14.5455 11.7576 14.5455C6.938 14.5455 3.75764 12.9178 3.75764 10.9091C3.75764 10.1062 2.37873 10.1818 1.57582 10.1818C1.346 10.1818 1.13291 10.1782 0.939453 10.1884C0.983817 10.6502 2.30309 21.0909 2.30309 21.0909C2.30309 22.6975 3.60563 24 5.21218 24H18.3031C19.9096 24 21.2122 22.6975 21.2122 21.0909C21.2122 21.0909 22.5635 10.2807 22.5729 10.1877C22.3809 10.1775 22.1678 10.1818 21.9395 10.1818C21.1365 10.1818 19.7576 10.1062 19.7576 10.9091Z" fill="#DD2E44"/>
<path d="M11.7577 21.8182C13.3644 21.8182 14.6668 20.5157 14.6668 18.9091C14.6668 17.3024 13.3644 16 11.7577 16C10.1511 16 8.84863 17.3024 8.84863 18.9091C8.84863 20.5157 10.1511 21.8182 11.7577 21.8182Z" fill="#BE1931"/>
</svg>
