<svg width="16" height="16" viewBox="0 0 16 16" fill="none" xmlns="http://www.w3.org/2000/svg">
<path d="M2.16287 4.05128C2.58114 3.75893 3.21165 3.815 3.5872 4.12514L3.15647 3.49908C2.80985 3.00472 2.93399 2.46988 3.42879 2.1228C3.92359 1.77707 5.32567 2.7066 5.32567 2.7066C4.97593 2.20735 5.04134 1.57461 5.54059 1.22442C6.03984 0.875571 6.72864 0.996157 7.07838 1.4963L11.7149 8.04616L11.124 13.7751L6.19246 11.9765L1.891 5.59886C1.53814 5.09649 1.66006 4.40369 2.16287 4.05128Z" fill="#E0AA94"/>
<path d="M1.19921 7.69516C1.19921 7.69516 0.695509 6.96097 1.43014 6.45772C2.16389 5.95446 2.66714 6.68821 2.66714 6.68821L5.00365 10.0957C5.08418 9.96136 5.17229 9.82876 5.27062 9.69794L2.02773 4.96932C2.02773 4.96932 1.52448 4.23557 2.25867 3.73232C2.99241 3.22906 3.49566 3.96281 3.49566 3.96281L6.54589 8.41111C6.65935 8.31856 6.77549 8.22556 6.89518 8.13434L3.35906 2.97677C3.35906 2.97677 2.85581 2.24302 3.59 1.73977C4.32374 1.23652 4.82699 1.97026 4.82699 1.97026L8.36312 7.12694C8.49305 7.0473 8.62164 6.97833 8.75068 6.90535L5.44549 2.08551C5.44549 2.08551 4.94224 1.35176 5.67598 0.848509C6.40973 0.345255 6.91298 1.079 6.91298 1.079L10.4077 6.17561L10.939 6.95074C8.73733 8.46094 8.52776 11.302 9.78567 13.1366C10.0371 13.5037 10.4042 13.2523 10.4042 13.2523C8.89441 11.0502 9.35539 8.57574 11.5575 7.06598L10.9083 3.81686C10.9083 3.81686 10.6658 2.96075 11.5215 2.7178C12.3776 2.4753 12.6205 3.33141 12.6205 3.33141L13.3703 5.558C13.6675 6.44081 13.9839 7.3205 14.4026 8.15258C15.5849 10.502 14.8787 13.4218 12.6495 14.9512C10.2177 16.6185 6.8934 15.9986 5.22568 13.5673L1.19921 7.69516Z" fill="#F7DECE"/>
<path d="M5.33966 14.2389C3.55981 14.2389 1.76126 12.4404 1.76126 10.6605C1.76126 10.4144 1.58105 10.2155 1.33499 10.2155C1.08893 10.2155 0.871338 10.4144 0.871338 10.6605C0.871338 13.3303 2.66988 15.1288 5.33966 15.1288C5.58572 15.1288 5.78462 14.9112 5.78462 14.6652C5.78462 14.4191 5.58572 14.2389 5.33966 14.2389Z" fill="#5DADEC"/>
<path d="M3.11474 15.1102C1.77985 15.1102 0.889927 14.2203 0.889927 12.8854C0.889927 12.6393 0.691028 12.4404 0.444963 12.4404C0.198899 12.4404 0 12.6393 0 12.8854C0 14.6652 1.33489 16.0001 3.11474 16.0001C3.36081 16.0001 3.55971 15.8012 3.55971 15.5552C3.55971 15.3091 3.36081 15.1102 3.11474 15.1102ZM10.6791 0.871368C10.4335 0.871368 10.2342 1.07071 10.2342 1.31633C10.2342 1.56195 10.4335 1.7613 10.6791 1.7613C12.459 1.7613 14.2388 3.35827 14.2388 5.321C14.2388 5.56662 14.4382 5.76597 14.6838 5.76597C14.9294 5.76597 15.1288 5.56662 15.1288 5.321C15.1288 2.86747 13.3489 0.871368 10.6791 0.871368Z" fill="#5DADEC"/>
<path d="M12.9039 0C12.6583 0 12.459 0.180655 12.459 0.426275C12.459 0.671895 12.6583 0.889927 12.9039 0.889927C14.2388 0.889927 15.1101 1.87997 15.1101 3.09606C15.1101 3.34168 15.3277 3.54102 15.5737 3.54102C15.8198 3.54102 16 3.34168 16 3.09606C16 1.38873 14.6838 0 12.9039 0Z" fill="#5DADEC"/>
</svg>
