<svg width="38" height="24" viewBox="0 0 38 24" fill="none" xmlns="http://www.w3.org/2000/svg">
<path d="M19.2122 4.36365C9.39402 4.36365 0.666748 8.13928 0.666748 14.1818C0.666748 18.7135 5.03038 22.4891 11.5758 22.4891C15.3438 22.4891 19.3333 20.2146 22.1871 20.2146C22.2886 20.2146 22.3878 20.2178 22.4849 20.2233C26.7493 20.4796 26.8486 24 32.3031 24C34.8569 24 37.7577 21.7342 37.7577 16.4476C37.7577 9.65019 30.1213 4.36365 19.2122 4.36365Z" fill="#FFD983"/>
<path d="M35.5758 12.0001H37.7577V16.3637H35.5758V12.0001ZM0.666748 9.81824H2.84857V14.1819H0.666748V9.81824Z" fill="#FFD983"/>
<path d="M32.3032 18.8814C29.8257 18.8814 28.7228 18.0578 27.4432 17.1054C26.277 16.236 24.9548 15.252 22.5799 15.108C22.4501 15.1003 22.3202 15.096 22.1872 15.096C20.6239 15.096 18.9384 15.6229 17.1548 16.1825C15.2872 16.7662 13.3562 17.3705 11.577 17.3705C5.88788 17.3705 1.75879 14.1938 1.75879 9.81816C1.75879 3.93161 10.7522 0.754883 19.2133 0.754883C29.3272 0.754883 36.6679 5.51888 36.6679 12.084C36.6668 17.0705 34.0562 18.8814 32.3032 18.8814Z" fill="#A0041E"/>
<path d="M19.2122 1.51091C28.6933 1.51091 35.5758 5.95745 35.5758 12.084C35.5758 16.6047 33.3286 18.1255 32.3031 18.1255C30.3024 18.1255 29.4831 17.5156 28.2417 16.5905C27.0057 15.6698 25.4675 14.5233 22.6737 14.3553C22.5144 14.3455 22.3518 14.34 22.1871 14.34C20.3893 14.34 18.5991 14.9007 16.7053 15.4931C14.9424 16.0451 13.1206 16.6145 11.5758 16.6145C7.23838 16.6145 2.84857 14.2789 2.84857 9.81818C2.84857 4.42255 11.2802 1.51091 19.2122 1.51091ZM19.2122 0C9.39402 0 0.666748 3.77564 0.666748 9.81818C0.666748 14.3498 5.03038 18.1255 11.5758 18.1255C15.3438 18.1255 19.3333 15.8509 22.1871 15.8509C22.2886 15.8509 22.3878 15.8542 22.4849 15.8596C26.7493 16.116 26.8486 19.6364 32.3031 19.6364C34.8569 19.6364 37.7577 17.3705 37.7577 12.084C37.7577 5.28655 30.1213 0 19.2122 0Z" fill="#FFE8B6"/>
<path d="M17.2058 1.57417C17.2058 1.57417 20.3029 1.5109 22.4847 3.02072C23.5756 3.77562 22.8502 5.47526 22.8502 5.47526L24.6665 6.04253C24.6665 6.04253 24.5989 5.13162 27.9393 4.53162C30.3949 4.0909 32.8942 6.04253 32.8942 6.04253C32.8942 6.04253 30.1211 2.26581 24.6665 1.5109C19.212 0.754897 17.2058 1.57417 17.2058 1.57417Z" fill="#FFE8B6"/>
<path d="M26.8486 7.55234C26.8486 9.22034 24.8948 10.5731 22.485 10.5731C20.0752 10.5731 18.1213 9.22034 18.1213 7.55234C18.1213 5.88434 20.0752 4.53162 22.485 4.53162C24.8948 4.53162 26.8486 5.88434 26.8486 7.55234Z" fill="#E6E7E8"/>
<path d="M24.6669 7.55242C24.6669 8.38697 23.6894 9.06333 22.485 9.06333C21.2807 9.06333 20.3032 8.38697 20.3032 7.55242C20.3032 6.71788 21.2807 6.0426 22.485 6.0426C23.6894 6.0426 24.6669 6.71788 24.6669 7.55242Z" fill="#A7A9AC"/>
</svg>
