<svg width="24" height="24" viewBox="0 0 24 24" fill="none" xmlns="http://www.w3.org/2000/svg">
<path d="M11.6571 24C1.40023 24 0 14.6667 0 12H23.3143C23.3143 13.3333 21.9717 24 11.6571 24Z" fill="#CCD6DD"/>
<path d="M23.3143 11.3707C23.3143 14.848 18.0953 17.6667 11.6571 17.6667C5.21897 17.6667 0 14.8473 0 11.3707C0 7.89333 5.21897 5.74133 11.6571 5.74133C18.0953 5.74067 23.3143 7.89333 23.3143 11.3707Z" fill="#99AAB5"/>
<path d="M12.6859 22H10.9716C10.7823 22 10.6287 21.8506 10.6287 21.6666C10.6287 21.4826 10.7823 21.3333 10.9716 21.3333H12.343V19.3333H9.60015V20H11.6573C11.8466 20 12.0002 20.1493 12.0002 20.3333C12.0002 20.5173 11.8466 20.6666 11.6573 20.6666H9.2573C9.06804 20.6666 8.91444 20.5173 8.91444 20.3333V19C8.91444 18.816 9.06804 18.6666 9.2573 18.6666H12.6859C12.8751 18.6666 13.0287 18.816 13.0287 19V21.6666C13.0287 21.8506 12.8751 22 12.6859 22ZM16.4573 21.3333C16.3215 21.3333 16.1926 21.254 16.1391 21.1233C16.0685 20.9526 16.1535 20.7586 16.3298 20.6906L17.8219 20.11L17.7773 18.6106L15.0859 19.2606V19.8933C15.5892 19.756 16.4285 19.5246 17.0456 19.3473C17.2253 19.2966 17.418 19.3953 17.4715 19.5726C17.525 19.7493 17.4214 19.9346 17.2397 19.9866C16.2948 20.258 14.8349 20.6546 14.8349 20.6546C14.7293 20.6826 14.621 20.662 14.5346 20.5993C14.4502 20.536 14.4002 20.4373 14.4002 20.3333V19C14.4002 18.8473 14.5071 18.7133 14.6607 18.6766L18.0248 17.864C18.1236 17.84 18.2326 17.8613 18.3142 17.922C18.3972 17.9833 18.4466 18.0766 18.45 18.178L18.5144 20.3233C18.5186 20.4633 18.4328 20.5906 18.2984 20.6426L16.5842 21.3093C16.543 21.3253 16.4998 21.3333 16.4573 21.3333ZM19.5931 19.5253C19.5163 19.5253 19.4552 19.5053 19.3956 19.4733C19.2872 19.4146 19.2002 19.2666 19.2002 19.146V17.438C19.2002 17.3146 19.2708 17.202 19.3826 17.144C19.7871 16.9353 20.2596 16.66 20.6429 16.4373C20.9103 16.282 21.1352 16.1506 21.2676 16.082C21.3698 16.03 21.4932 16.0306 21.594 16.084C21.6955 16.138 21.762 16.238 21.7709 16.3506C21.7942 16.6426 21.6934 17.3806 21.6722 17.526C21.6578 17.628 21.5954 17.7186 21.5028 17.77L20.6779 18.2286C20.5147 18.3166 20.3042 18.2646 20.2095 18.1046C20.1156 17.9453 20.1725 17.7413 20.3371 17.6493L21.0139 17.2733C21.0262 17.18 21.0379 17.078 21.0495 16.9773L20.9947 17.0093C20.6587 17.2046 20.2555 17.44 19.8859 17.6373V18.7206C20.0045 18.658 20.165 18.568 20.3823 18.436L20.6148 18.6886L20.7451 19.0026C20.0943 19.394 19.7906 19.5253 19.5931 19.5253ZM7.4573 21.5206C7.42233 21.5206 7.38735 21.5153 7.35307 21.5053L5.14575 20.818C4.96541 20.7613 4.86598 20.574 4.92358 20.3986C4.98118 20.2226 5.17524 20.1293 5.35421 20.1826L7.12678 20.7346L7.17135 19.164L5.21295 18.6066L5.19513 19.0966L6.28198 19.4546C6.46095 19.514 6.55695 19.7026 6.49661 19.8773C6.43558 20.052 6.24153 20.1433 6.06187 20.086L4.73295 19.6486C4.58964 19.6013 4.49501 19.468 4.5005 19.3213L4.54301 18.1546C4.54644 18.052 4.59924 17.956 4.68495 17.896C4.77067 17.8353 4.8797 17.8173 4.98187 17.8466L7.61775 18.5966C7.76724 18.6386 7.86804 18.7746 7.86393 18.9253L7.79947 21.196C7.79672 21.3006 7.74255 21.3986 7.65478 21.4593C7.59718 21.5 7.52724 21.5206 7.4573 21.5206ZM3.32175 19.6666C3.25935 19.6666 3.19764 19.6506 3.1421 19.6173L2.19924 19.0546C2.0381 18.958 1.98735 18.7533 2.0861 18.596C2.18484 18.4393 2.39535 18.3886 2.55787 18.4866L2.97478 18.7353L2.9693 17.6533L2.0573 17.1533V17.4366L2.56678 17.7353C2.72861 17.8306 2.78073 18.0346 2.68335 18.1926C2.5853 18.35 2.37547 18.4 2.21227 18.306L1.53752 17.91C1.43467 17.85 1.37158 17.7413 1.37158 17.6253V16.584C1.37158 16.4653 1.43604 16.356 1.54164 16.296C1.64655 16.236 1.77684 16.2346 1.88312 16.2933L3.47947 17.168C3.58644 17.2266 3.65295 17.3366 3.65364 17.4566L3.66461 19.3313C3.6653 19.4526 3.5981 19.5646 3.49044 19.6233C3.43764 19.6526 3.37935 19.6666 3.32175 19.6666Z" fill="#EA596E"/>
<path d="M11.6573 16.6667C17.3379 16.6667 21.943 14.5774 21.943 12C21.943 9.42271 17.3379 7.33337 11.6573 7.33337C5.97665 7.33337 1.37158 9.42271 1.37158 12C1.37158 14.5774 5.97665 16.6667 11.6573 16.6667Z" fill="#FFAC33"/>
<path d="M14.4001 16C13.5909 16 12.945 15.8693 12.4794 15.6107C11.9534 15.3187 11.651 14.8487 11.651 14.322C11.6517 13.0853 13.2563 12 15.0858 12C15.465 12 15.7715 12.2987 15.7715 12.6667C15.7715 13.0353 15.465 13.3333 15.0858 13.3333C13.8021 13.3333 13.0231 14.02 13.0231 14.322C13.0231 14.3727 13.1274 14.4347 13.1596 14.4527C13.3036 14.5327 13.6561 14.6667 14.4001 14.6667C16.0485 14.6667 17.8286 13.6473 17.8286 12C17.8286 11.5193 17.1841 11.2113 16.9077 11.1013C15.5226 10.5507 13.2796 10.7153 12.1461 11.8373C11.158 12.8153 9.54589 13.1413 7.83298 12.7047C6.77835 12.4367 5.55709 11.8127 5.29241 10.864C5.15801 10.3807 5.29789 9.90667 5.68669 9.528C7.25903 8 10.1973 8 12.3429 8C12.7221 8 13.0286 8.29867 13.0286 8.66667C13.0286 9.03467 12.7221 9.33333 12.3429 9.33333C10.4373 9.33333 7.82681 9.33333 6.65629 10.4713C6.62063 10.5067 6.61241 10.5253 6.61241 10.526C6.62818 10.6307 7.00395 11.0353 7.85149 11.3187C8.92875 11.6793 10.3722 11.6913 11.1683 10.9033C12.7585 9.32933 15.5987 9.14067 17.4275 9.86733C18.5541 10.3153 19.2001 11.0927 19.2001 12C19.2001 14.4707 16.7082 16 14.4001 16ZM9.60006 16C4.38521 16 2.74292 12.3627 2.74292 11.3333C2.74292 10.9653 3.05012 10.6667 3.42863 10.6667C3.80646 10.6667 4.11298 10.9633 4.11435 11.33C4.13903 11.772 5.28075 14.6667 9.60006 14.6667C9.97858 14.6667 10.2858 14.9647 10.2858 15.3333C10.2858 15.702 9.97858 16 9.60006 16Z" fill="#FFD983"/>
<path d="M23.3776 2.03537L7.60271 2.62604C7.22557 2.6587 6.89231 2.3887 6.85871 2.02137C6.82511 1.6547 7.10283 1.3307 7.47997 1.29804L23.1938 0.0440363C23.5716 0.0107029 23.9042 0.28137 23.9385 0.648036C23.9714 1.01404 23.7554 2.00204 23.3776 2.03537ZM23.3145 5.33337L7.54305 4.6667C7.16454 4.6667 6.85734 4.36804 6.85734 4.00004C6.85734 3.63204 7.16454 3.33337 7.54305 3.33337H23.3145C23.6937 3.33337 24.0002 3.63204 24.0002 4.00004C24.0002 4.36804 23.6937 5.33337 23.3145 5.33337Z" fill="#AA695B"/>
<path d="M8.91423 10C8.53572 10 8.22852 9.70133 8.22852 9.33333V1.33333C8.22852 0.965333 8.53572 0.666667 8.91423 0.666667C9.29274 0.666667 9.59994 0.965333 9.59994 1.33333V9.33333C9.59994 9.70133 9.29274 10 8.91423 10ZM11.6571 11.3333C11.2786 11.3333 10.9714 11.0347 10.9714 10.6667V0.666667C10.9714 0.298667 11.2786 0 11.6571 0C12.0356 0 12.3428 0.298667 12.3428 0.666667V10.6667C12.3428 11.0347 12.0356 11.3333 11.6571 11.3333Z" fill="#FFD983"/>
</svg>
