<svg width="63" height="41" viewBox="0 0 63 41" fill="none" xmlns="http://www.w3.org/2000/svg">
<path d="M13.9444 5.36176C6.24336 7.42524 1.11892 13.274 3.11365 20.7185C3.12835 20.7733 3.35081 21.4102 3.60574 22.0901C3.84953 22.0109 20.4208 29.532 20.4208 29.532C20.4208 29.532 31.0092 14.7324 31.2581 14.6797C31.1815 14.208 31.0216 13.3173 31.0024 13.2457C29.0077 5.80125 21.6454 3.29828 13.9444 5.36176Z" fill="#BE1931"/>
<path d="M27.6229 11.1711C27.3038 11.2187 27.0295 11.3699 26.8183 11.582C26.7079 11.1811 26.5614 10.8427 26.3555 10.606L26.4241 9.46371C26.4718 8.66776 25.8662 7.98412 25.0703 7.93635C24.7143 7.91316 24.3843 8.0275 24.1199 8.22688C23.762 7.60537 22.9977 7.32595 22.3166 7.61405C22.2065 7.66049 22.1083 7.72167 22.017 7.78998C21.7341 7.30285 21.1793 7.00612 20.5857 7.08148C19.7855 7.18528 19.2341 7.90496 19.3354 8.69583L19.6179 10.9178C19.2439 10.6224 18.7338 10.515 18.2544 10.6853C17.6681 10.8882 17.3011 11.4299 17.2867 12.0157L17.0375 11.3571C16.7548 10.6108 15.9151 10.236 15.1765 10.5176C14.4383 10.7971 14.0641 11.6168 14.3313 12.3572L14.3152 12.3715C14.2285 11.8657 13.8858 11.4493 13.4221 11.2697L12.5154 9.43622C12.1616 8.72196 11.2982 8.42623 10.5814 8.7817C9.8669 9.13456 9.57402 10.0012 9.92688 10.7157L11.4888 13.8751L11.5335 15.4623L9.18497 12.1041C8.72692 11.4507 7.82637 11.2914 7.1748 11.749C6.52136 12.2071 6.36187 13.1067 6.819 13.7604L8.60801 16.3169C8.34607 16.6223 8.20776 17.032 8.27101 17.4614L8.5661 19.4737L7.77314 17.7303C7.44295 17.0037 6.5845 16.6818 5.86148 17.014C5.13585 17.3439 4.81525 18.2 5.14518 18.9257L8.90241 27.1841L30.5673 21.3791C30.5825 21.2534 29.2683 12.3812 29.2683 12.3812C29.1467 11.5928 28.4109 11.0516 27.6229 11.1711Z" fill="#F4900C"/>
<path d="M24.207 8.38791C24.1827 8.33066 24.1503 8.28054 24.1203 8.22782C23.7624 7.60632 22.9981 7.32689 22.317 7.61499C22.2069 7.66143 22.1087 7.72262 22.0174 7.79092C21.4963 8.17765 21.2819 8.87975 21.545 9.50471L26.9361 22.3511L29.751 21.5968L24.207 8.38791ZM20.0903 11.5794C19.9968 11.3085 19.8272 11.0849 19.6174 10.919C19.2433 10.6236 18.7333 10.5162 18.2538 10.6865C17.6675 10.8894 17.3006 11.4311 17.2861 12.0169C17.2822 12.1843 17.303 12.3551 17.361 12.5229L21.2449 23.7495L21.2849 23.8653L24.0822 23.1158L24.0736 23.0912L20.0903 11.5794ZM9.48907 15.8228C9.13068 15.876 8.82725 16.06 8.60791 16.316C8.34597 16.6213 8.20766 17.031 8.27091 17.4605L9.66671 26.9794L12.4742 26.2272L11.1269 17.0419C11.0112 16.2529 10.2781 15.7071 9.48907 15.8228ZM12.5167 9.43691C12.1629 8.72266 11.2995 8.42692 10.5827 8.78239C9.86822 9.13525 9.57534 10.0019 9.92821 10.7164L16.9977 25.0151L19.8415 24.2531L12.5167 9.43691Z" fill="#FFCC4D"/>
<path d="M27.9068 16.5661C28.5948 19.1338 25.087 22.3035 18.9264 23.9543C12.7658 25.605 8.14306 24.6138 7.45507 22.0462C7.18007 21.0199 5.44341 21.5888 4.4171 21.8638C4.12334 21.9425 3.84971 22.0109 3.60592 22.0901C3.8208 22.6653 9.08311 35.5591 9.08311 35.5591C9.63335 37.6126 11.7444 38.8315 13.798 38.2812L30.5312 33.7976C32.5848 33.2473 33.8036 31.1362 33.2534 29.0827C33.2534 29.0827 31.2781 14.8019 31.2583 14.6797C31.0094 14.7325 30.7385 14.811 30.4466 14.8892C29.4203 15.1642 27.6318 15.5398 27.9068 16.5661Z" fill="#DD2E44"/>
<path d="M21.417 33.2505C23.4707 32.7002 24.6895 30.5893 24.1392 28.5356C23.5889 26.482 21.478 25.2632 19.4243 25.8135C17.3706 26.3638 16.1519 28.4747 16.7022 30.5284C17.2525 32.582 19.3634 33.8008 21.417 33.2505Z" fill="#BE1931"/>
<path d="M41.9642 23.3275C31.9815 22.4542 23.9105 21.5065 23.2906 28.5928C22.6709 35.6759 30.6218 37.9956 40.6045 38.869C50.5873 39.7423 58.8202 38.8385 59.4399 31.7554C60.0598 24.6702 51.947 24.2009 41.9642 23.3275Z" fill="#D99E82"/>
<path d="M59.4625 25.4006C59.4625 25.4006 50.7987 23.5863 42.0129 22.7726C33.2193 22.0483 24.3721 22.3305 24.3721 22.3305C22.9026 29.1514 29.8447 32.6216 41.0654 33.6033C52.286 34.585 59.7252 32.373 59.4625 25.4006Z" fill="#662113"/>
<path d="M59.0817 22.5892L25.0869 20.3084C23.915 20.2059 22.7262 22.4946 23.915 23.2244C32.9391 26.9208 40.1408 30.4921 40.1408 30.4921C41.116 31.1485 41.462 31.1809 42.5374 30.705C42.5374 30.705 53.1949 27.4853 59.9607 26.3329C60.9207 26.17 60.2525 22.6916 59.0817 22.5892Z" fill="#FFCC4D"/>
<path d="M59.9675 22.7568C58.1066 20.7144 58.1369 21.7175 56.6242 21.144C56.0496 20.9263 52.311 15.1086 42.7032 14.268L42.6819 14.2661C33.0741 13.4256 28.3821 18.5057 27.7784 18.6203C26.1891 18.9225 26.3931 17.9399 24.2059 19.6281C23.202 20.4033 22.9116 20.8266 23.8723 21.1339C25.3196 21.5965 25.1072 22.4786 26.1378 22.8822C27.3854 23.3703 27.9718 22.7292 30.0117 23.1911C31.7516 23.5848 31.6668 25.8788 33.4437 26.0343C35.2206 26.1898 35.2952 25.3375 37.071 25.4929C38.8469 25.6483 39.6972 28.0262 41.4741 28.1817C43.251 28.3372 44.5003 26.1429 46.2772 26.2983C48.0541 26.4538 47.9796 27.306 49.7554 27.4614C51.5323 27.6168 51.8472 25.3429 53.629 25.2573C55.7181 25.1578 56.1854 25.8899 57.4977 25.6258C58.5827 25.4073 58.5266 24.5029 60.0323 24.2975C61.0338 24.1629 60.8225 23.6947 59.9675 22.7568Z" fill="#77B255"/>
<path d="M59.4535 20.6809C59.1753 23.8597 51.3761 24.6898 41.9174 23.8623C32.4588 23.0348 24.9222 20.8629 25.2003 17.6841C25.7039 11.9284 26.7329 12.0184 42.8304 13.4268C58.9279 14.8351 59.9569 14.9262 59.4535 20.6809Z" fill="#DD2E44"/>
<path d="M43.8178 2.14224C33.8351 1.26886 25.3339 5.23858 24.714 12.3238C24.1432 18.8487 32.2118 19.8229 42.1946 20.6963C52.1774 21.5697 60.2926 22.0113 60.8634 15.4864C61.4834 8.40017 53.8006 3.01562 43.8178 2.14224Z" fill="#D99E82"/>
<path d="M35.8352 4.8477C35.3345 4.46146 34.6167 4.55539 34.2315 5.05626C33.8464 5.55714 33.9391 6.27587 34.4401 6.65998C34.9409 7.04622 36.2631 7.41737 36.6493 6.91659C37.0345 6.41572 36.3361 5.23288 35.8352 4.8477ZM46.3012 4.65234C45.6855 4.79385 44.5573 5.57965 44.6999 6.1954C44.8424 6.81115 46.1991 7.02215 46.8147 6.88065C47.4304 6.73914 47.8137 6.12432 47.6711 5.50858C47.5295 4.89399 46.9148 4.50959 46.3012 4.65234ZM57.2667 13.1633C56.8206 12.7164 55.5573 13.2553 55.1093 13.7013C54.6622 14.1485 54.6623 14.872 55.1084 15.3189C55.5545 15.7658 56.279 15.7659 56.726 15.3198C57.1741 14.8727 57.7139 13.6104 57.2667 13.1633ZM53.8519 7.49739C53.351 7.11222 52.6332 7.20614 52.247 7.70693C51.8618 8.2078 51.9558 8.92556 52.4566 9.31073C52.9574 9.69697 54.2796 10.0681 54.6648 9.56726C55.0511 9.06541 54.3528 7.88257 53.8519 7.49739ZM37.2202 13.5564C36.7193 13.1712 36.0016 13.2651 35.6153 13.7659C35.2303 14.2657 35.3241 14.9845 35.8251 15.3687C36.3258 15.7549 37.648 16.1271 38.0332 15.6252C38.4195 15.1244 37.7211 13.9416 37.2202 13.5564ZM40.9132 8.71838C40.5099 9.20479 40.0906 10.5131 40.5781 10.9164C41.0645 11.3197 42.2716 10.6631 42.6748 10.1767C43.0781 9.69032 43.0091 8.96938 42.5227 8.56615C42.0373 8.16301 41.3153 8.23187 40.9132 8.71838ZM48.9383 14.5816C48.4375 14.1964 47.7197 14.2903 47.3335 14.7911C46.9484 15.2909 47.0421 16.0108 47.5432 16.3939C48.044 16.7801 49.3661 17.1523 49.7513 16.6504C50.1376 16.1496 49.4392 14.9668 48.9383 14.5816ZM29.2349 8.6853C28.7741 9.11837 28.1939 10.3633 28.627 10.8241C29.0579 11.2847 30.3381 10.787 30.7989 10.3539C31.2607 9.92202 31.2832 9.19835 30.8513 8.73655C30.4204 8.27591 29.6956 8.2533 29.2349 8.6853Z" fill="#FFE8B6"/>
</svg>
