<svg width="28" height="24" viewBox="0 0 28 24" fill="none" xmlns="http://www.w3.org/2000/svg">
<path d="M14.1267 24C2.18751 24 0.557617 12.8254 0.557617 9.63269H27.6959C27.6959 11.2291 26.133 24 14.1267 24Z" fill="#CCD6DD"/>
<path d="M27.6959 9.67736C27.6959 13.8407 21.6209 17.2154 14.1267 17.2154C6.63259 17.2154 0.557617 13.8399 0.557617 9.67736C0.557617 5.51404 6.63259 2.9375 14.1267 2.9375C21.6209 2.9367 27.6959 5.51404 27.6959 9.67736Z" fill="#66757F"/>
<path d="M1.92078 11.1293C1.27585 10.2026 0.0586185 8.33564 1.35567 5.542C1.92078 4.07893 3.09571 3.1259 3.25135 3.58007C3.61692 4.64404 4.34886 5.57552 5.44636 5.47575C5.43199 5.85329 4.91237 2.03638 6.74341 1.01869C7.64136 0.519829 8.60557 1.31801 9.70307 3.0804C11.4607 5.90358 15.9377 4.58418 17.194 3.84506C18.4663 3.09637 19.5806 2.60628 19.2478 0.602839C19.1743 0.16304 19.8408 -0.218492 20.5209 0.14548C21.6631 0.756889 23.3129 2.27743 23.6042 3.94563C24.4192 4.16194 25.0298 3.81553 25.4999 2.86489C25.733 2.39396 26.5312 2.28302 26.8728 2.89762C27.4746 3.97996 28.4628 7.30918 27.0636 10.1651C25.4672 13.4241 23.0391 15.1537 17.5851 15.8521C12.1311 16.5506 5.11352 15.7188 1.92078 11.1293Z" fill="#77B255"/>
<path d="M15.2577 4.16194C15.2577 5.84291 13.813 7.20462 12.0314 7.20462C10.2499 7.20462 8.80518 5.84212 8.80518 4.16194C8.80518 2.48176 10.2499 1.11926 12.0314 1.11926C13.813 1.11846 15.2577 2.48176 15.2577 4.16194Z" fill="#5C913B"/>
<path d="M14.4597 4.162C14.4597 5.42712 13.3725 6.45199 12.0316 6.45199C10.6906 6.45199 9.60352 5.42633 9.60352 4.162C9.60352 2.89688 10.6906 1.87122 12.0316 1.87122C13.3725 1.87201 14.4597 2.89768 14.4597 4.162Z" fill="#C6E5B3"/>
<path d="M6.27817 9.23363C7.28854 9.23363 8.1076 8.51891 8.1076 7.63726C8.1076 6.75561 7.28854 6.04089 6.27817 6.04089C5.2678 6.04089 4.44873 6.75561 4.44873 7.63726C4.44873 8.51891 5.2678 9.23363 6.27817 9.23363Z" fill="#292F33"/>
<path d="M13.7468 8.18161C14.7581 10.0877 12.0674 8.94068 10.064 10.0047C8.05975 11.0686 7.50262 13.9389 6.49052 12.0328C5.47842 10.1268 6.28299 7.71946 8.28643 6.65548C10.2907 5.5923 12.7355 6.27555 13.7468 8.18161Z" fill="#DD2E44"/>
<path d="M19.0492 7.63719C20.0595 7.63719 20.8786 6.92247 20.8786 6.04083C20.8786 5.15918 20.0595 4.44446 19.0492 4.44446C18.0388 4.44446 17.2197 5.15918 17.2197 6.04083C17.2197 6.92247 18.0388 7.63719 19.0492 7.63719Z" fill="#292F33"/>
<path d="M23.0004 12.1302C21.752 13.3116 22.0601 11.0032 20.8182 9.691C19.5746 8.37878 17.2535 8.56157 18.501 7.37946C19.7486 6.19735 21.7688 6.30271 23.0108 7.61412C24.2535 8.92554 24.2488 10.9481 23.0004 12.1302Z" fill="#9266CC"/>
<path d="M22.2021 12.9284C20.9537 14.1097 21.2618 11.8014 20.0198 10.4884C18.7762 9.17694 16.4551 9.35893 17.7027 8.17682C18.9503 6.99471 20.9705 7.10007 22.2124 8.41149C23.4552 9.7237 23.4504 11.7463 22.2021 12.9284Z" fill="#E1E8ED"/>
<path d="M18.9263 11.9698C19.5496 13.6156 17.4911 12.4128 15.7607 13.0689C14.0318 13.7242 13.2863 15.9886 12.6629 14.3436C12.0395 12.6993 12.9367 10.8332 14.6656 10.1779C16.3952 9.52256 18.3021 10.3255 18.9263 11.9698Z" fill="#DD2E44"/>
<path d="M6.90973 11.2961C6.77643 10.0653 9.17099 4.57694 13.4285 9.36684C12.4308 9.53287 10.0027 9.53287 8.90519 11.063C7.80769 12.5931 6.80996 11.229 6.90973 11.2961Z" fill="#EA596E"/>
<path d="M3.68401 11.7949C3.10293 11.0199 5.08083 9.23356 6.57743 10.7629C7.20959 9.99822 10.3353 8.4689 11.4998 11.7949C12.0322 11.1963 16.3887 11.063 16.455 14.7546C16.4877 15.2535 11.4304 15.1585 8.83868 14.5551C7.40834 14.2222 4.78151 13.258 3.68401 11.7949ZM20.5121 13.9891C19.5806 14.2406 21.1451 9.89845 24.0712 10.6304C24.171 9.8322 24.8024 7.20458 26.6318 7.67072C26.698 8.43538 26.6645 12.3257 20.5121 13.9891Z" fill="#A6D388"/>
</svg>
