<svg width="25" height="24" viewBox="0 0 25 24" fill="none" xmlns="http://www.w3.org/2000/svg">
<path d="M20.8705 16.4789C22.5755 15.9103 24.8484 13.6374 24.8484 12.501C24.8484 11.3645 23.1434 11.9324 23.712 10.2281C24.2806 8.52373 24.8484 6.81871 23.712 5.68226C22.5755 4.54581 21.4391 5.68226 20.3026 4.54581C19.1662 3.40936 20.3026 2.2729 19.1662 1.13645C18.0297 0 16.3247 0.567888 14.6204 1.13645C12.916 1.70502 13.4832 0 12.3468 0C11.2103 0 8.93744 2.2729 8.36887 3.97792C7.80031 5.68294 6.66453 4.54581 6.09664 6.25083C5.56932 7.83348 6.21631 9.51145 4.76346 12.841C4.06982 13.9369 3.41472 14.9895 2.80357 15.9124C0.114212 19.9721 0.982946 23.8662 0.982946 23.8662C0.982946 23.8662 4.87704 24.7349 8.93676 22.0456C9.85958 21.4344 10.9122 20.7793 12.0081 20.0857C15.3377 18.6321 17.0156 19.2798 18.5983 18.7525C20.3026 18.1839 19.1662 17.0475 20.8705 16.4789Z" fill="#5C913B"/>
<path d="M23.8365 12.6875C23.7668 12.4766 23.5404 12.361 23.3294 12.4313C21.1593 13.1439 19.4428 12.889 18.5964 12.6672C20.4968 10.7303 22.2045 8.71772 23.4788 6.86059C23.6046 6.67738 23.5573 6.42724 23.3747 6.30149C23.1915 6.17507 22.9414 6.22307 22.8163 6.4056C22.0848 7.47107 21.1917 8.60347 20.1946 9.74803C20.25 8.55479 20.1506 6.69496 19.2974 4.85473C19.2035 4.65326 18.9648 4.56605 18.764 4.65935C18.5626 4.75264 18.4747 4.99129 18.5686 5.19276C19.7037 7.64211 19.3758 10.2064 19.2866 10.7601C18.3611 11.7667 17.3686 12.77 16.3417 13.7361C16.4472 12.4698 16.3985 10.4085 15.2877 8.77586C15.164 8.59265 14.9145 8.54397 14.73 8.66904C14.5468 8.79411 14.4988 9.04358 14.6238 9.22747C15.9469 11.1738 15.5345 13.9619 15.4202 14.5852C13.7707 16.0725 12.0717 17.4321 10.4647 18.5307C11.5025 16.8581 12.5916 14.2242 11.8169 11.1989C11.7614 10.9839 11.5424 10.8534 11.3281 10.9095C11.1131 10.9649 10.9833 11.1833 11.0387 11.3983C12.1738 15.8312 8.78744 19.5022 8.48456 19.8193C4.82912 22.0881 2.82394 22.7723 2.80095 22.7797C2.5907 22.85 2.47712 23.0765 2.54743 23.2874C2.60354 23.4558 2.75971 23.5626 2.92805 23.5626C2.96996 23.5626 3.01256 23.5558 3.05447 23.5423C3.16264 23.5058 5.756 22.6269 10.529 19.4616C11.4518 18.8498 12.4003 18.1528 13.3522 17.3996C13.822 17.6876 14.899 18.171 16.842 18.171C17.3855 18.171 17.9953 18.1325 18.6788 18.0426C18.8986 18.0135 19.0534 17.8114 19.0243 17.5916C18.9959 17.3719 18.7884 17.2164 18.5734 17.2462C16.0693 17.5788 14.6678 17.1542 14.0323 16.8534C15.3668 15.7589 16.6939 14.5575 17.9527 13.3142C18.3699 13.4616 19.2521 13.7104 20.4778 13.7104C21.356 13.7104 22.4073 13.5826 23.5823 13.1959C23.7912 13.1249 23.9054 12.8978 23.8365 12.6875Z" fill="#679E44"/>
<path d="M9.30131 16.2774C9.60959 16.2165 9.98345 16.1544 10.3898 16.0874C12.9662 15.6595 15.6306 15.2167 15.6306 13.5664C15.6306 12.7274 15.1817 12.2265 14.8862 11.9195C15.0552 11.8681 15.2851 11.8201 15.444 11.7857C16.1673 11.6322 17.0679 11.4409 17.4606 10.6431C17.7034 10.1503 17.6723 9.55603 17.364 8.86172C17.6452 8.65417 18.4321 8.40336 18.9243 8.24719C20.1385 7.86048 21.2858 7.49473 21.6008 6.55434C21.711 6.22713 21.7516 5.70927 21.3243 5.10487C21.3189 5.09744 21.3108 5.08121 21.3054 5.07107C20.9707 5.01428 20.6368 4.87907 20.3021 4.5451C20.0905 4.33349 19.958 4.12188 19.8748 3.91028C20.033 4.34634 20.4461 5.32594 20.6341 5.59096C22.0071 7.53259 15.6846 7.30409 16.5615 9.13823C17.6033 11.3165 14.5962 10.6296 14.0283 11.4821C13.4597 12.3346 14.7862 12.4293 14.7862 13.5657C14.7862 14.7022 10.9015 15.1011 9.13838 15.4472C5.57623 16.1483 0.982422 23.8661 0.982422 23.8661C0.982422 23.8661 1.32586 23.9405 1.90389 23.9777C3.29116 21.7305 6.81004 16.7669 9.30131 16.2774Z" fill="#3E721D"/>
<path d="M9.13823 15.4486C10.9014 15.1024 14.786 14.7036 14.786 13.5671C14.786 12.4307 13.4603 12.336 14.0281 11.4835C14.5967 10.631 17.6031 11.3179 16.5613 9.13962C15.6838 7.30548 22.007 7.53398 20.6339 5.59235C20.4162 5.28474 19.8943 4.01375 19.8193 3.74739C19.5738 2.8773 20.0363 2.00721 19.1655 1.13713C18.0291 0.000676089 16.324 0.568564 14.6197 1.13713C12.9154 1.70569 13.4832 0 12.3468 0C11.2103 0 8.93744 2.2729 8.36887 3.97792C7.80031 5.68294 6.66453 4.54581 6.09664 6.25083C5.56932 7.83348 6.21631 9.51145 4.76346 12.841C4.06982 13.9369 3.41472 14.9895 2.80357 15.9124C0.114212 19.9721 0.982946 23.8662 0.982946 23.8662C0.982946 23.8662 5.57608 16.1483 9.13823 15.4486Z" fill="#77B255"/>
<path d="M19.8795 5.43683C18.0386 4.58365 16.1781 4.48427 14.9849 4.54038C16.1294 3.54252 17.2612 2.64945 18.3273 1.91863C18.5105 1.79288 18.5572 1.54274 18.4314 1.35953C18.3057 1.177 18.0555 1.13035 17.873 1.25542C16.0159 2.52911 14.0032 4.23751 12.0663 6.13791C11.8439 5.29081 11.589 3.57497 12.3023 1.40483C12.3719 1.1939 12.257 0.966742 12.046 0.897785C11.8365 0.828151 11.6086 0.94308 11.539 1.15401C10.6155 3.96506 11.1672 6.06557 11.42 6.78422C10.1767 8.04304 8.97539 9.36946 7.88086 10.7047C7.58001 10.0692 7.1568 8.66771 7.48874 6.16224C7.51781 5.94252 7.363 5.74038 7.14328 5.71131C6.92694 5.68224 6.7221 5.83571 6.69235 6.0561C6.27793 9.18625 6.9675 10.7824 7.33528 11.3828C6.58148 12.3346 5.88514 13.2832 5.2733 14.206C2.10733 18.9789 1.22845 21.5723 1.19262 21.6798C1.12231 21.8907 1.23657 22.1172 1.44682 22.1875C1.48873 22.2017 1.53133 22.2078 1.57392 22.2078C1.74226 22.2078 1.8991 22.1017 1.95521 21.9333C1.96265 21.9103 2.64682 19.9058 4.91499 16.2504C5.22801 15.9489 8.89156 12.5557 13.336 13.6962C13.5482 13.7496 13.77 13.6212 13.8248 13.4062C13.8795 13.1912 13.7504 12.9722 13.5347 12.9167C10.5094 12.1433 7.8741 13.2331 6.20085 14.2709C7.29945 12.6632 8.65968 10.9629 10.1477 9.31267C10.7717 9.19842 13.5597 8.78737 15.5054 10.1104C15.5751 10.1571 15.6535 10.1801 15.7306 10.1801C15.859 10.1801 15.9861 10.1185 16.0632 10.0043C16.1882 9.82107 16.1402 9.57093 15.957 9.44585C14.3237 8.33577 12.2624 8.28709 10.9961 8.39256C11.9615 7.3663 12.9648 6.37385 13.9715 5.44833C14.5218 5.35774 17.08 5.02579 19.5395 6.16562C19.5942 6.19131 19.6517 6.20348 19.7085 6.20348C19.8599 6.20348 20.0046 6.11695 20.0729 5.97024C20.1689 5.76878 20.081 5.52945 19.8795 5.43683Z" fill="#A6D388"/>
</svg>
