<svg width="24" height="24" viewBox="0 0 24 24" fill="none" xmlns="http://www.w3.org/2000/svg">
<rect width="24" height="24" rx="12" fill="#1E283C"/>
<path d="M8.50224 8.08487C7.53736 9.53945 6.75 11.201 6.75 12.75C6.75 14.1424 7.30312 15.4778 8.28769 16.4623C9.27226 17.4469 10.6076 18 12 18C13.3924 18 14.7277 17.4469 15.7123 16.4623C16.6969 15.4778 17.25 14.1424 17.25 12.75C17.25 9.50004 15 7.00004 13.1765 5.1795L13.1764 5.17956L11 9.75004L8.50231 8.08491L8.50224 8.08487Z" fill="#FF4A3E" stroke="#FF4A3E" stroke-width="1.5" stroke-linecap="round" stroke-linejoin="round"/>
<path d="M15.2118 13.25C15.1054 13.931 14.7855 14.5607 14.2981 15.0481C13.8107 15.5355 13.181 15.8554 12.5 15.9618" stroke="#FCF6F6" stroke-width="1.5" stroke-linecap="round" stroke-linejoin="round"/>
</svg>
