<svg width="24" height="24" viewBox="0 0 24 24" fill="none" xmlns="http://www.w3.org/2000/svg">
<rect width="24" height="24" rx="12" fill="#1E283C"/>
<path d="M12.2757 15.9208L15.4279 17.9179C15.8308 18.1732 16.3311 17.7935 16.2115 17.3232L15.3008 13.7405C15.2752 13.6407 15.2782 13.5357 15.3096 13.4376C15.3409 13.3395 15.3994 13.2522 15.4781 13.1858L18.3049 10.8331C18.6763 10.5239 18.4846 9.90751 18.0074 9.87654L14.3159 9.63696C14.2165 9.62986 14.1211 9.59465 14.0409 9.53545C13.9607 9.47625 13.899 9.39548 13.8629 9.30255L12.4861 5.83549C12.4487 5.73685 12.3821 5.65194 12.2953 5.59201C12.2085 5.53209 12.1055 5.5 12 5.5C11.8945 5.5 11.7915 5.53209 11.7047 5.59201C11.6179 5.65194 11.5513 5.73685 11.5139 5.83549L10.1371 9.30255C10.101 9.39548 10.0393 9.47625 9.95912 9.53545C9.87892 9.59465 9.78355 9.62986 9.68412 9.63696L5.99263 9.87654C5.51544 9.90751 5.32373 10.5239 5.69515 10.8331L8.52186 13.1858C8.60063 13.2522 8.65907 13.3395 8.69044 13.4376C8.72181 13.5357 8.72485 13.6407 8.6992 13.7405L7.85459 17.063C7.71111 17.6274 8.31143 18.083 8.79495 17.7767L11.7243 15.9208C11.8067 15.8683 11.9023 15.8405 12 15.8405C12.0977 15.8405 12.1933 15.8683 12.2757 15.9208Z" fill="#FFB23E" stroke="#FFB23E" stroke-width="1.5" stroke-linecap="round" stroke-linejoin="round"/>
</svg>
